<svg viewBox="0 0 258 152" fill="none" xmlns="http://www.w3.org/2000/svg" class="FEIuWc" aria-hidden="true"><path d="M109.859 68.7571C109.92 68.5104 110.162 67.3483 110.284 68.2226C110.598 70.4846 110.584 72.7504 110.979 75.0095C111.801 79.7077 111.352 95.6756 111.352 96.6511C107.191 96.6511 97.3807 96.8971 95.2422 96.8971C96.9983 94.454 100.482 90.9912 103.106 86.5133C104.773 83.6706 109.067 71.9809 109.859 68.7571Z" fill="#5F6368"></path><path d="M111.046 46.9428L185.467 41.2744L183.024 76.5943L143.57 77.9235L110.947 51.4775L111.046 46.9428Z" fill="#5F6368"></path><path d="M253.47 143.019L143.932 150L142.71 78.796L255.1 71.8152V140.366C255.1 141.763 254.414 143.019 253.47 143.019Z" stroke="#5F6368" stroke-width="2" stroke-miterlimit="10"></path><path d="M143.257 78.2646L110.906 50.1892V121.781L143.257 149.857" stroke="#5F6368" stroke-width="2" stroke-miterlimit="10"></path><path d="M110.906 75.6287L143.257 133.464V149.858L110.906 121.642V75.6287Z" fill="#5F6368"></path><path d="M87.6977 97.7769C79.2583 97.7769 77.1484 85.0026 77.1484 76.0185V54.5408C77.1484 50.6103 80.5242 47.3816 84.4626 47.522L110.906 48.645C110.906 48.645 110.203 97.7769 87.6977 97.7769Z" stroke="#5F6368" stroke-width="2" stroke-miterlimit="10"></path><path d="M88.4014 97.7771L110.907 96.3733" stroke="#5F6368" stroke-width="2" stroke-miterlimit="10"></path><path d="M147.943 73.1961L120.892 13.1298C120.33 11.7261 120.892 10.0416 122.299 9.48005L143.116 0.215172C144.523 -0.346336 146.211 0.215172 146.773 1.61894L179.309 71.9327" fill="#1E8E3E" class="VnOHwf-Wvd9Cc"></path><path d="M124.55 21.5519L136.506 16.2175" stroke="white" stroke-width="2" stroke-miterlimit="10" stroke-linecap="round"></path><path d="M130.737 35.5895L142.693 30.2551" stroke="white" stroke-width="2" stroke-miterlimit="10" stroke-linecap="round"></path><path d="M137.068 49.4876L149.024 44.1533" stroke="white" stroke-width="2" stroke-miterlimit="10" stroke-linecap="round"></path><path d="M143.257 63.3849L155.213 58.0505" stroke="white" stroke-width="2" stroke-miterlimit="10" stroke-linecap="round"></path><path d="M49.5344 31.0979V137.784C49.5344 140.873 47.0026 143.399 43.9081 143.399H7.33723C4.24277 143.399 1.71094 140.873 1.71094 137.784V31.0979" fill="#DADCE0"></path><path d="M3.58398 57.3478C18.9156 56.0844 34.2473 54.821 49.5789 53.4172" stroke="#5F6368" stroke-width="2" stroke-miterlimit="10" stroke-linecap="round"></path><path d="M1 110.327C17.4569 108.923 33.2183 107.66 49.6753 106.256" stroke="#5F6368" stroke-width="2" stroke-miterlimit="10" stroke-linecap="round"></path><path d="M25.1048 96.373C32.8731 96.373 39.1705 90.0881 39.1705 82.3353C39.1705 74.5825 32.8731 68.2976 25.1048 68.2976C17.3365 68.2976 11.0391 74.5825 11.0391 82.3353C11.0391 90.0881 17.3365 96.373 25.1048 96.373Z" fill="white"></path><path d="M49.5344 117.559L1.71094 133.546V138.486C1.71094 141.575 4.24277 144.101 7.33723 144.101H43.7675C48.5498 144.101 49.3938 140.311 49.5344 135.538V117.559Z" fill="#5F6368"></path><path d="M25.8073 38.8191C39.0133 38.8191 49.719 35.0482 49.719 30.3965C49.719 25.7448 39.0133 21.9739 25.8073 21.9739C12.6012 21.9739 1.89551 25.7448 1.89551 30.3965C1.89551 35.0482 12.6012 38.8191 25.8073 38.8191Z" fill="white" stroke="#5F6368" stroke-width="2" stroke-miterlimit="10"></path><path d="M12.0225 32.2204C21.8685 35.5894 33.1211 34.1856 41.8418 28.8513" stroke="#5F6368" stroke-width="2" stroke-miterlimit="10" stroke-linecap="round"></path><path d="M77.1477 69.2808C76.0224 69.4212 71.5214 69.702 71.662 72.9306C71.8027 74.8959 76.3037 76.5804 81.508 75.0363C86.7124 73.6325 92.4793 69.1404 95.1518 69.9827C101.903 71.948 89.8068 83.5993 76.7257 83.5993C54.5018 83.5993 55.9084 62.8235 77.007 62.8235L77.1477 69.2808Z" fill="#5F6368"></path><path d="M178.082 77.6193V95.8683C178.082 97.4125 179.348 98.6759 181.036 98.6759L208.464 97.5528C210.011 97.5528 211.136 96.2894 211.136 94.7453V75.2747" fill="#DADCE0"></path><path d="M187.928 98.5366C186.944 101.906 188.209 111.872 194.82 111.872C201.431 111.872 201.431 100.221 201.572 97.9751" stroke="#5F6368" stroke-width="2" stroke-miterlimit="10" stroke-linecap="round"></path><path d="M192.288 77.3384C191.303 78.1806 190.6 81.1286 191.444 82.2516C192.429 83.7957 194.82 83.3746 196.508 84.0765C197.774 84.7784 198.617 86.3225 198.195 87.8666C197.774 89.4108 196.367 90.3934 194.96 90.2531C193.554 90.1127 192.147 88.9897 191.866 87.5859" stroke="#5F6368" stroke-width="2" stroke-miterlimit="10" stroke-linecap="round"></path><mask id="path-24-inside-1" fill="white"><path d="M256.247 72.1448L257.654 7.57139C257.654 6.02724 256.529 4.76384 254.981 4.76384L190.138 2.23706C188.591 2.23706 187.325 3.36008 187.185 4.90422L183.105 76.4965"></path></mask><path d="M257.654 7.57139L259.653 7.61494L259.654 7.59317V7.57139H257.654ZM254.981 4.76384L254.903 6.76233L254.942 6.76384H254.981V4.76384ZM190.138 2.23706L190.216 0.238577L190.177 0.237061H190.138V2.23706ZM187.185 4.90422L185.193 4.72279L185.19 4.75658L185.188 4.79045L187.185 4.90422ZM258.247 72.1883L259.653 7.61494L255.654 7.52783L254.248 72.1012L258.247 72.1883ZM259.654 7.57139C259.654 5.0558 257.762 2.76384 254.981 2.76384V6.76384C255.184 6.76384 255.328 6.83761 255.435 6.95285C255.552 7.07764 255.654 7.28658 255.654 7.57139H259.654ZM255.059 2.76536L190.216 0.238577L190.06 4.23554L254.903 6.76233L255.059 2.76536ZM190.138 0.237061C187.586 0.237061 185.43 2.11946 185.193 4.72279L189.176 5.08565C189.22 4.60069 189.596 4.23706 190.138 4.23706V0.237061ZM185.188 4.79045L181.109 76.3827L185.102 76.6102L189.181 5.01799L185.188 4.79045Z" fill="#5F6368" mask="url(#path-24-inside-1)"></path><path d="M245.136 41.6665H200.125C199.93 41.6665 199.845 41.6058 199.812 41.5726C199.779 41.5396 199.719 41.456 199.719 41.2627V15.9948C199.719 15.8016 199.779 15.7179 199.812 15.6849C199.845 15.6517 199.93 15.5911 200.125 15.5911H245.136C245.331 15.5911 245.416 15.6517 245.449 15.6849C245.482 15.7179 245.542 15.8016 245.542 15.9948V41.2627C245.542 41.456 245.482 41.5396 245.449 41.5726C245.416 41.6058 245.331 41.6665 245.136 41.6665Z" fill="white" stroke="#5F6368" stroke-width="2"></path><path d="M199.94 40.8255L245.321 15.8125V41.2625C245.321 41.2625 205.518 41.0527 199.94 40.8255Z" fill="#5F6368"></path><path d="M198.719 62.3185C201.826 62.3185 204.345 59.8046 204.345 56.7035C204.345 53.6023 201.826 51.0884 198.719 51.0884C195.612 51.0884 193.093 53.6023 193.093 56.7035C193.093 59.8046 195.612 62.3185 198.719 62.3185Z" fill="#CEEAD6" class="VnOHwf-Ysl7Fe"></path><path d="M221.224 62.3185C224.331 62.3185 226.85 59.8046 226.85 56.7035C226.85 53.6023 224.331 51.0884 221.224 51.0884C218.117 51.0884 215.598 53.6023 215.598 56.7035C215.598 59.8046 218.117 62.3185 221.224 62.3185Z" fill="#CEEAD6" class="VnOHwf-Ysl7Fe"></path><path d="M242.323 62.3185C245.43 62.3185 247.949 59.8046 247.949 56.7035C247.949 53.6023 245.43 51.0884 242.323 51.0884C239.215 51.0884 236.696 53.6023 236.696 56.7035C236.696 59.8046 239.215 62.3185 242.323 62.3185Z" fill="#CEEAD6" class="VnOHwf-Ysl7Fe"></path><path d="M256.388 63.7219L183.246 72.2849L181.559 77.5775L256.388 73.5483V63.7219Z" fill="#5F6368"></path></svg>