<svg viewBox="0 0 249 163" fill="none" xmlns="http://www.w3.org/2000/svg" aria-hidden="true"><path d="M39.8359 110.546C44.454 118.756 63.2838 144.252 69.5122 143.153C75.7405 142.054 95.891 133.627 95.891 133.627" stroke="#5F6368" stroke-width="2" stroke-linecap="round" stroke-linejoin="round"></path><path d="M68.0464 119.705L71.3912 113.477M89.6624 105.416L78.6712 99.9209L71.3912 113.477M62.5508 103.218L71.3912 113.477" stroke="#5F6368" stroke-width="2" stroke-linecap="round" stroke-linejoin="round"></path><path d="M91.8605 90.7617C86.7313 91.4945 82.6513 95.561 80.5029 100.287" stroke="#5F6368" stroke-width="2" stroke-linecap="round" stroke-linejoin="round"></path><path d="M135.458 53.3918C136.68 49.2396 137.73 39.7627 132.161 35.0731C126.592 30.3836 106.393 29.4554 96.9893 29.5776M112.377 42.4006C110.638 43.6655 107.404 46.4554 104.386 50.0945M108.713 66.9476C108.347 66.337 106.075 63.4304 99.9202 56.6892C101.161 54.3117 102.741 52.0771 104.386 50.0945M100.287 46.4307L104.386 50.0945" stroke="#5F6368" stroke-width="2" stroke-linecap="round" stroke-linejoin="round"></path><path d="M223.792 105.806C222.049 106.846 86.7314 137.291 86.7314 137.291L106.817 125.978L155.61 107.981L181.988 100.287L212.801 105.806L213.534 103.607L223.792 105.806Z" fill="#5F6368"></path><path d="M217.16 89.5156L227.419 91.3475" stroke="#5F6368" stroke-width="2"></path><path d="M212.764 104.171L223.755 106.369" stroke="#5F6368" stroke-width="2"></path><path d="M70.8902 68.1131L46.9001 121.911L37.6748 109.499L51.597 78.7233L62.5882 66.2666L70.8902 68.1131Z" fill="#5F6368"></path><path d="M246.881 84.1162C246.258 83.67 245.508 83.4344 244.741 83.4436C243.974 83.4528 243.23 83.7064 242.617 84.1675L232.629 91.495L224.921 90.1174L221.47 106.641L238.367 110.305C238.619 110.36 238.878 110.387 239.136 110.385C239.931 110.386 240.705 110.129 241.341 109.652C241.976 109.175 242.44 108.504 242.661 107.74L248.303 88.1683C248.532 87.4298 248.517 86.6372 248.261 85.9075C248.005 85.1779 247.522 84.5499 246.881 84.1162Z" fill="#1E8E3E" class="VnOHwf-Wvd9Cc"></path><path d="M182.475 79.0048L197.742 104.317L183.982 103.409L166.967 75.7402L182.475 79.0048Z" fill="#5F6368"></path><path d="M7.96094 64.0162C13.7008 55.2232 27.8916 35.146 38.7363 25.1806C48.0306 16.6399 59.424 7.66859 65.9511 2.97173C67.6866 1.72293 69.9689 1.56758 71.7914 2.68547C79.5905 7.46924 92.5255 18.0821 99.1878 28.8443" stroke="#5F6368" stroke-width="2" stroke-linecap="round" stroke-linejoin="round"></path><path d="M1 108.714C4.17523 108.225 12.0645 107.322 18.2195 107.615C24.3746 107.908 29.3328 109.447 31.0426 110.179" stroke="#5F6368" stroke-width="2" stroke-linecap="round" stroke-linejoin="round"></path><path d="M103.607 125.964C103.71 130.719 116.467 144.642 120.307 141.711C124.146 138.78 113.514 128.191 113.873 120.461" fill="#DADCE0"></path><path d="M42.0336 93.3263C40.3239 90.5174 35.2191 83.4342 28.4778 77.5722C21.7366 71.7103 11.991 66.3368 7.96094 64.3828C9.54855 69.7563 14.0427 82.042 19.3185 88.1971C24.5943 94.3521 30.3097 99.0661 32.5079 100.654" stroke="#5F6368" stroke-width="2" stroke-linecap="round" stroke-linejoin="round"></path><path d="M58.5217 21.3202C57.1148 20.5874 55.4002 21.1736 54.1252 21.9723C54.0153 21.5766 53.9054 21.1883 53.7662 20.8073C52.9602 18.609 51.7145 16.191 49.6921 14.9453C47.5525 13.6337 44.7974 14.4397 43.2952 16.3448C42.7728 17.0184 42.387 17.7875 42.1595 18.609C40.8278 18.0342 39.379 17.7831 37.9315 17.8763C37.0468 18.0115 36.226 18.4184 35.5827 19.0406C34.9395 19.6629 34.5056 20.4697 34.3411 21.3495C34.24 22.2495 34.3174 23.1607 34.5689 24.0307C34.8203 24.9008 35.2409 25.7128 35.8066 26.4201C35.2185 25.8875 34.5275 25.481 33.7763 25.2256C33.025 24.9703 32.2295 24.8715 31.4386 24.9353C30.6477 24.9992 29.8783 25.2243 29.1778 25.5969C28.4772 25.9694 27.8604 26.4815 27.3653 27.1015C26.9334 27.7663 26.6421 28.5124 26.5092 29.2939C26.3764 30.0755 26.4049 30.8759 26.593 31.646C26.781 32.4161 27.1247 33.1396 27.6028 33.772C28.0809 34.4043 28.6834 34.9321 29.3731 35.323C27.9515 34.2531 25.7093 35.2277 25.0425 36.891C24.3757 38.5544 25.1085 40.4815 26.3175 41.7931C27.4471 42.8983 28.7711 43.7851 30.2231 44.409C27.5852 43.3758 24.0826 45.7206 24.2805 48.593C24.5003 51.6852 28.8455 53.539 31.2269 51.524C29.7614 53.3338 28.1787 55.3562 28.208 57.701C28.208 59.6868 30.1425 61.6212 31.9377 61.4234C29.908 62.3979 28.8308 65.2263 29.9812 67.2267C30.3421 67.7667 30.8203 68.2183 31.38 68.5478C31.9397 68.8774 32.5666 69.0763 33.2139 69.1298C33.8612 69.1834 34.5122 69.0901 35.1184 68.857C35.7247 68.6239 36.2705 68.257 36.7152 67.7836C35.9048 68.4405 35.3885 69.3923 35.28 70.4298C35.1714 71.4673 35.4795 72.5054 36.1363 73.3158C36.7932 74.1262 37.745 74.6425 38.7825 74.751C39.82 74.8596 40.8582 74.5516 41.6685 73.8947C43.3392 72.671 46.2848 60.0385 47.3327 55.3416C47.5894 54.218 47.479 53.0417 47.0176 51.9856C45.7939 49.1425 43.2733 43.2806 41.9763 40.3716C45.4129 36.8764 58.0967 28.4718 59.5622 26.149C60.5441 24.5443 60.3023 22.2727 58.5217 21.3202Z" fill="#5F6368"></path><path d="M71.7098 54.124L77.5717 69.5117L63.2832 66.9471" stroke="#5F6368" stroke-width="2" stroke-linecap="round" stroke-linejoin="round"></path><path d="M78.3424 70.2971L84.9811 42.2549L72.5537 55.1585L78.3424 70.2971Z" fill="#5F6368"></path><path d="M197.376 129.963C197.376 130.256 201.528 136.435 203.604 139.489M191.514 148.648L184.187 138.756" stroke="#5F6368" stroke-width="2" stroke-linecap="round" stroke-linejoin="round"></path><path d="M61.1442 72.348C63.0054 74.6415 69.5488 81.2875 71.6005 80.6866C74.9272 79.7267 66.5079 68.9627 65.1523 65.8998C64.1485 63.6429 85.6692 41.7192 85.6692 41.7192C88.039 40.6267 90.6545 40.1769 93.2531 40.4149C98.3824 40.8692 103.621 44.2838 105.453 42.4519C108.472 39.433 89.3329 32.5892 93.7294 32.1935C101.79 31.4607 110.033 31.3215 108.384 29.2625C105.453 25.5988 95.9277 27.5332 88.1459 27.0643C89.5674 26.119 90.2196 23.5031 90.2196 23.5031L86.5558 23.5764L85.999 19.7588L82.599 22.8363L78.459 20.8652C78.3563 20.8159 78.2436 20.7912 78.1297 20.793C78.0159 20.7949 77.904 20.8233 77.803 20.8759C77.702 20.9285 77.6147 21.004 77.5479 21.0962C77.4812 21.1885 77.4369 21.2951 77.4185 21.4075L76.1142 24.1113L72.0401 23.6423C71.9245 23.6186 71.8048 23.6231 71.6912 23.6555C71.5777 23.688 71.4736 23.7474 71.388 23.8287C71.3024 23.91 71.2377 24.0109 71.1994 24.1226C71.1611 24.2343 71.1504 24.3536 71.1682 24.4703L71.857 29.2625C63.3351 24.866 51.8676 25.5182 42.2101 33.0655C32.5525 40.6127 33.8348 52.3147 35.9744 61.6572C37.3373 67.6071 44.4962 75.2277 44.9359 81.3168C45.5001 89.2817 36.9709 94.5062 30.9258 99.7527C27.4232 102.772 23.0341 106.259 23.928 110.898C24.2183 112.195 24.8745 113.381 25.8187 114.316C26.7629 115.251 27.9555 115.896 29.2551 116.174C33.5563 117.221 37.6524 115.052 40.7079 112.158C47.9328 105.322 50.7099 93.2312 52.6957 83.4857C58.5576 85.1124 64.1704 95.642 66.8596 95.4295C69.5488 95.217 62.4632 84.4383 60.9244 82.1668C58.3231 78.3565 61.1442 72.348 61.1442 72.348Z" fill="#CEEAD6" class="VnOHwf-Ysl7Fe"></path><path d="M57.3422 61.5621C60.0621 66.7405 60.7919 72.7356 59.3939 78.4153C59.3424 78.6028 59.3675 78.8031 59.4637 78.9722C59.5599 79.1412 59.7193 79.2651 59.9068 79.3166C60.0943 79.3681 60.2946 79.343 60.4637 79.2468C60.6327 79.1506 60.7566 78.9912 60.8081 78.8036C62.2978 72.7474 61.5158 66.3551 58.6098 60.8367C58.1702 60.0014 56.9099 60.7415 57.3495 61.5695L57.3422 61.5621Z" fill="#5F6368"></path><path d="M79.1779 42.6647C83.2445 43.3375 87.4171 42.9074 91.2609 41.419C91.3538 41.3936 91.4407 41.3501 91.5168 41.291C91.5929 41.2319 91.6565 41.1584 91.7042 41.0747C91.7518 40.991 91.7825 40.8987 91.7944 40.8032C91.8064 40.7076 91.7994 40.6106 91.7738 40.5177C91.7484 40.4248 91.7049 40.3379 91.6458 40.2618C91.5867 40.1857 91.5132 40.1221 91.4295 40.0744C91.3458 40.0268 91.2535 39.9961 91.1579 39.9842C91.0624 39.9722 90.9654 39.9792 90.8725 40.0048C87.283 41.4237 83.3786 41.8539 79.5662 41.2505C79.4734 41.2249 79.3764 41.2179 79.2808 41.2298C79.1853 41.2418 79.093 41.2725 79.0093 41.3201C78.9256 41.3677 78.8521 41.4314 78.793 41.5075C78.7339 41.5835 78.6904 41.6705 78.665 41.7634C78.6394 41.8563 78.6324 41.9533 78.6443 42.0488C78.6563 42.1444 78.6869 42.2367 78.7346 42.3204C78.7822 42.4041 78.8459 42.4776 78.922 42.5367C78.998 42.5957 79.085 42.6392 79.1779 42.6647Z" fill="#5F6368"></path><path d="M176.492 77.5717C179.423 69.5115 174.214 59.7962 179.915 60.038C184.129 60.2286 188.049 64.266 192.02 65.6802C193.612 66.2651 195.249 66.7185 196.915 67.0358C197.515 67.1453 198.134 67.0649 198.686 66.8058C199.238 66.5467 199.696 66.1218 199.995 65.5903C200.294 65.0588 200.42 64.4472 200.356 63.8408C200.291 63.2343 200.038 62.6632 199.633 62.207C198.798 61.2837 198.051 60.3605 197.186 59.32C199.23 59.5491 201.292 59.5712 203.341 59.3859C203.965 59.337 204.556 59.0899 205.029 58.6808C205.502 58.2718 205.832 57.7222 205.97 57.1123C206.108 56.5025 206.048 55.8644 205.798 55.2913C205.548 54.7182 205.121 54.2401 204.579 53.9269C203.847 53.502 203.077 53.055 202.059 52.5274C203.334 50.7615 204.316 47.999 205.026 45.3831C205.181 44.8171 205.162 44.2176 204.972 43.6623C204.783 43.1071 204.43 42.6216 203.961 42.2687C203.493 41.9159 202.929 41.7119 202.342 41.6832C201.756 41.6545 201.175 41.8024 200.674 42.1078C193.977 46.0499 182.465 51.6335 171.489 51.3257C164.74 51.1279 158.145 49.0835 151.397 48.8417C136.94 48.3141 108.363 54.1761 93.0995 84.5264C84.6803 101.27 85.1419 140.618 86.0652 141.344L89.6116 141.38C91.1711 141.395 92.7179 141.1 94.1628 140.513C95.6077 139.927 96.922 139.059 98.0299 137.962C99.1377 136.864 100.017 135.558 100.617 134.119C101.217 132.679 101.526 131.135 101.526 129.576C110.385 125.252 120.475 123.135 123.384 114.628L132.91 88.9815L162.937 74.2744L176.492 77.5717Z" fill="#DADCE0"></path><path d="M87.1352 142.348C88.9563 142.348 90.4326 140.379 90.4326 137.951C90.4326 135.523 88.9563 133.555 87.1352 133.555C85.3142 133.555 83.8379 135.523 83.8379 137.951C83.8379 140.379 85.3142 142.348 87.1352 142.348Z" fill="#5F6368"></path><path d="M223.675 146.795C223.488 146.052 223.069 145.388 222.479 144.899C221.888 144.41 221.158 144.122 220.392 144.077L208.002 143.227L203.004 137.196L189.734 147.572L200.293 161.26C200.861 161.993 201.685 162.484 202.6 162.634C203.515 162.783 204.453 162.58 205.225 162.066L222.173 150.767C222.811 150.348 223.299 149.738 223.569 149.025C223.839 148.312 223.876 147.531 223.675 146.795Z" fill="#1E8E3E" class="VnOHwf-Wvd9Cc"></path><path d="M159.12 107.799L180.633 138.64C181.076 139.269 181.749 139.697 182.506 139.834C183.262 139.972 184.042 139.806 184.678 139.373L196.651 131.313C197.269 130.896 197.704 130.259 197.869 129.532C198.033 128.805 197.915 128.043 197.538 127.4L167.451 76.2029C167.084 75.5797 166.499 75.1145 165.809 74.8967C165.119 74.6789 164.373 74.724 163.714 75.0232L133.071 88.9893L123.545 119.574L159.12 107.799Z" fill="white"></path><path d="M164.036 74.6406L124.139 120.489L123.406 115.36L132.199 88.2487L164.036 74.6406Z" fill="#5F6368"></path><path d="M115.588 119.625C117.786 125.538 126.308 138.493 130.353 135.746C134.397 132.998 127.011 123.875 125.026 119.83C123.274 116.277 126.147 107.015 126.147 107.015" fill="#DADCE0"></path><path d="M58.1543 61.4512C59.6198 64.3822 62.0379 71.8562 59.9862 78.3043" stroke="#5F6368" stroke-width="2" stroke-linecap="round" stroke-linejoin="round"></path><path d="M79.0371 41.6675C80.5026 42.4002 84.9724 43.2062 91.1274 40.5684" stroke="#5F6368" stroke-width="2" stroke-linecap="round" stroke-linejoin="round"></path><path d="M75.007 29.5771C74.2743 30.0656 73.0286 31.3357 73.9079 32.5081C74.7872 33.6804 76.2283 32.508 76.8389 31.7753C76.5946 32.7523 76.3992 34.7796 77.5716 35.0727C78.744 35.3658 79.7699 33.7293 80.1362 32.8744M82.3345 22.9824C83.0672 21.8832 84.7525 19.8315 85.6318 20.4177C86.5111 21.0039 85.9982 23.1045 85.6318 24.0815C86.4867 23.3487 88.4163 22.1764 89.2956 23.3487C90.1748 24.5211 88.9292 25.7912 88.1964 26.2797" stroke="#5F6368" stroke-width="2" stroke-linecap="round" stroke-linejoin="round"></path><path d="M143.519 66.2148C142.542 67.6803 140.808 70.3182 141.688 75.0078C142.567 79.6974 145.718 81.3583 146.817 81.9689" stroke="#5F6368" stroke-width="2" stroke-linecap="round" stroke-linejoin="round"></path><path d="M130.73 88.815C131.244 88.815 148.59 81.0733 160.509 75.7157C163.269 74.475 166.52 75.4805 168.096 78.0636L197.238 125.818C198.343 127.63 197.842 129.989 196.095 131.194L186.232 137.998C184.441 139.234 181.991 138.811 180.717 137.047L159.078 107.068M164.233 104.833L124.468 119.349" stroke="#5F6368" stroke-width="2" stroke-linecap="round" stroke-linejoin="round"></path><path d="M101.386 101.386C106.393 103.218 116.114 108.127 114.942 113.11C113.77 118.092 104.195 114.697 99.5543 112.377M93.326 113.11C95.4021 114.575 99.2612 117.799 98.0888 118.972C96.9165 120.144 93.6924 118.727 92.2269 117.873C93.326 119.094 95.3044 121.683 94.4251 122.269C93.5458 122.855 91.6163 121.781 90.7614 121.17C91.9826 122.757 94.2053 126.812 93.326 127.398C92.2269 128.131 90.395 127.765 89.2959 125.933" stroke="#5F6368" stroke-width="2" stroke-linecap="round" stroke-linejoin="round"></path><path d="M101.387 58.5205C100.165 59.8639 97.7962 63.4299 98.0893 66.9471C98.3824 70.4643 100.41 73.5418 101.387 74.6409" stroke="#5F6368" stroke-width="2" stroke-linecap="round" stroke-linejoin="round"></path><path d="M165.868 75.374L213.492 85.5067C215.7 85.9765 217.082 88.1794 216.544 90.372L213.656 102.146C213.154 104.192 211.151 105.498 209.076 105.132L181.622 100.287" stroke="#5F6368" stroke-width="2" stroke-linecap="round" stroke-linejoin="round"></path></svg>