<svg viewBox="0 0 90 185" fill="none" xmlns="http://www.w3.org/2000/svg" aria-hidden="true" class="BgnnGb"><path d="M33.0977 89.9174H15.9888C13.7484 89.9174 11.9153 87.3741 11.9153 84.3222V80.5581C11.9153 77.4044 13.7484 74.9629 15.9888 74.9629H32.9959C30.9591 79.5408 30.9591 85.3395 33.0977 89.9174Z" fill="#DADCDF"></path><path d="M26.478 86.5605C32.8939 86.4588 39.3097 86.4588 45.8274 86.3571C56.1131 86.2553 66.297 86.1536 76.5827 86.0519C78.925 86.0519 81.2673 85.9502 83.6096 85.9502C84.9335 85.9502 84.9335 83.9155 83.6096 83.9155C77.1937 84.0173 70.7779 84.0173 64.2602 84.119C53.9745 84.2207 43.6888 84.3225 33.5049 84.4242C31.1626 84.4242 28.8203 84.5259 26.478 84.5259C25.1541 84.5259 25.1541 86.5605 26.478 86.5605Z" fill="#DADCDF"></path><path d="M26.478 74.8613C25.1541 74.8613 25.1541 76.896 26.478 76.896H83.5077C84.8316 76.896 84.8316 74.8613 83.5077 74.8613" fill="#DADCDF"></path><path d="M26.478 81.9824C32.8939 81.8807 39.3097 81.8807 45.8274 81.779C56.1131 81.6772 66.297 81.5755 76.5827 81.4738C78.925 81.4738 81.2673 81.372 83.6096 81.372C84.9335 81.372 84.9335 79.3374 83.6096 79.3374C77.1937 79.4391 70.7779 79.4391 64.2602 79.5409C53.9745 79.6426 43.7906 79.7443 33.5049 79.8461C31.1626 79.8461 28.8203 79.9478 26.478 79.9478C25.1541 79.9478 25.1541 81.9824 26.478 81.9824Z" fill="#DADCDF"></path><path d="M71.5928 139.562C76.2774 141.088 80.1472 144.751 81.8785 149.736C84.8318 158.281 80.2491 167.539 71.6946 170.489" stroke="#5F6368" stroke-width="2" stroke-miterlimit="10" stroke-linecap="round"></path><path d="M3.97181 108.128C10.795 108.026 17.6182 108.026 24.4414 107.924C35.2363 107.822 46.133 107.721 56.928 107.619C59.3721 107.619 61.9181 107.517 64.3622 107.517C66.2971 107.517 66.2971 104.465 64.3622 104.465C57.539 104.567 50.7158 104.567 43.8926 104.669C33.0977 104.771 22.2009 104.872 11.406 104.974C8.96191 104.974 6.41594 105.076 3.97181 105.076C2.03688 105.076 1.93504 108.128 3.97181 108.128Z" fill="#1E8E3E" class="VnOHwf-Wvd9Cc"></path><path d="M78.5991 99.9111H7.06519V105.21H78.5991V99.9111Z" fill="#5F6368"></path><path d="M65.4824 183.918H25.2561C21.8954 183.918 19.1458 181.171 19.1458 177.814V131.526H71.5927V177.814C71.5927 181.171 68.8431 183.918 65.4824 183.918Z" stroke="#5F6368" stroke-width="2" stroke-miterlimit="10"></path><path d="M19.1458 131.526V179.848C19.1458 180.967 19.5531 181.985 20.3678 182.697L71.5927 131.526H19.1458Z" fill="#5F6368"></path><path d="M34.625 131.831C41.0408 131.729 47.4567 131.729 53.9744 131.628C64.2601 131.526 74.4439 131.424 84.7297 131.322C87.0719 131.322 86.6646 131.221 89.0069 131.221C90.3308 131.221 90.3308 129.186 89.0069 129.186C82.591 129.288 78.823 129.288 72.4072 129.39C62.1215 129.491 51.9376 129.593 41.6519 129.695C39.3096 129.695 36.9673 129.796 34.625 129.796C33.3011 129.796 33.3011 131.831 34.625 131.831Z" fill="#DADCDF"></path><path d="M34.625 122.878C41.0408 122.777 47.4567 122.777 53.9744 122.675C64.2601 122.573 74.4439 122.471 84.7297 122.37C87.0719 122.37 86.6646 122.268 89.0069 122.268C90.3308 122.268 90.3308 120.233 89.0069 120.233C82.591 120.335 78.823 120.335 72.4072 120.437C62.1215 120.539 51.9376 120.64 41.6519 120.742C39.3096 120.742 36.9673 120.844 34.625 120.844C33.3011 120.844 33.3011 122.98 34.625 122.878Z" fill="#DADCDF"></path><path d="M34.625 127.355C41.0408 127.253 47.4567 127.253 53.9744 127.152C64.2601 127.05 74.4439 126.948 84.7297 126.846C87.0719 126.846 86.6646 126.745 89.0069 126.745C90.3308 126.745 90.3308 124.71 89.0069 124.71C82.591 124.812 78.823 124.812 72.4072 124.913C62.1215 125.015 51.9376 125.117 41.6519 125.219C39.3096 125.219 36.9673 125.32 34.625 125.32C33.3011 125.32 33.3011 127.355 34.625 127.355Z" fill="#DADCDF"></path><path d="M38.1895 131.831H4.07355C1.8331 131.831 0 129.999 0 127.761V125.015C0 122.776 1.8331 120.945 4.07355 120.945H38.1895C36.1527 124.201 36.1527 128.473 38.1895 131.831Z" fill="#DADCDF"></path><path d="M63.0383 120.539H80.0454C82.2858 120.539 84.1189 117.894 84.1189 114.638V110.772C84.1189 107.517 82.2858 104.872 80.0454 104.872H63.0383C65.2788 109.857 65.2788 115.554 63.0383 120.539Z" fill="#1E8E3E" class="VnOHwf-Wvd9Cc"></path><path d="M3.97181 113.519C10.795 113.417 17.6182 113.417 24.4414 113.315C35.2363 113.214 46.133 113.112 56.928 113.01C59.3721 113.01 61.9181 112.908 64.3622 112.908C66.2971 112.908 66.2971 109.856 64.3622 109.856C57.539 109.958 50.7158 109.958 43.8926 110.06C33.0977 110.162 22.2009 110.263 11.406 110.365C8.96191 110.365 6.41594 110.467 3.97181 110.467C2.03688 110.467 1.93504 113.519 3.97181 113.519Z" fill="#1E8E3E" class="VnOHwf-Wvd9Cc"></path><path d="M3.97181 118.911C10.795 118.809 17.6182 118.809 24.4414 118.707C35.2363 118.606 46.133 118.504 56.928 118.402C59.3721 118.402 61.9181 118.3 64.3622 118.3C66.2971 118.3 66.2971 115.249 64.3622 115.249C57.539 115.35 50.7158 115.35 43.8926 115.452C33.0977 115.554 22.2009 115.655 11.406 115.757C8.96191 115.757 6.41594 115.859 3.97181 115.859C2.03688 115.961 1.93504 119.013 3.97181 118.911Z" fill="#1E8E3E" class="VnOHwf-Wvd9Cc"></path><path d="M54.8911 100.803H78.7214C80.9618 100.803 82.7949 98.7684 82.7949 96.2251V93.1731C82.7949 90.6298 80.9618 88.5952 78.7214 88.5952H54.8911C57.0297 92.3593 57.0297 97.0389 54.8911 100.803Z" fill="#DADCDF"></path><path d="M3.97169 91.2401C6.00846 91.2401 7.9434 91.2401 9.98017 91.1384C14.7666 91.0366 19.553 91.0366 24.3394 90.9349C30.1442 90.8332 36.0509 90.8332 41.8557 90.7314C46.8458 90.6297 51.9377 90.6297 56.9278 90.528C59.372 90.528 61.8161 90.528 64.2602 90.4262H64.3621C65.686 90.4262 65.686 88.3916 64.3621 88.3916C62.3253 88.3916 60.3904 88.3916 58.3536 88.4933C53.5672 88.5951 48.7807 88.5951 43.9943 88.6968C38.1895 88.7985 32.2829 88.7985 26.4781 88.9003C21.488 89.002 16.396 89.002 11.4059 89.1037C8.96179 89.1037 6.51766 89.1037 4.07353 89.2055H3.97169C2.64778 89.2055 2.64778 91.2401 3.97169 91.2401Z" fill="#DADCDF"></path><path d="M3.97169 96.3265C6.00846 96.3265 7.9434 96.3265 9.98017 96.2248C14.7666 96.123 19.553 96.123 24.3394 96.0213C30.1442 95.9196 36.0509 95.9196 41.8557 95.8178C46.8458 95.7161 51.9377 95.7161 56.9278 95.6144C59.372 95.6144 61.8161 95.6144 64.2602 95.5127H64.3621C65.686 95.5127 65.686 93.478 64.3621 93.478C62.3253 93.478 60.3904 93.478 58.3536 93.5798C53.5672 93.6815 48.7807 93.6815 43.9943 93.7832C38.1895 93.885 32.2829 93.885 26.4781 93.9867C21.488 94.0884 16.396 94.0884 11.4059 94.1901C8.96179 94.1901 6.51766 94.1901 4.07353 94.2919H3.97169C2.64778 94.2919 2.64778 96.3265 3.97169 96.3265Z" fill="#DADCDF"></path><path d="M3.97169 101.413C6.00846 101.413 7.9434 101.413 9.98017 101.312C14.7666 101.21 19.553 101.21 24.3394 101.108C30.1442 101.006 36.0509 101.006 41.8557 100.905C46.8458 100.803 51.9377 100.803 56.9278 100.701C59.372 100.701 61.8161 100.701 64.2602 100.6H64.3621C65.686 100.6 65.686 98.5649 64.3621 98.5649C62.3253 98.5649 60.3904 98.5649 58.3536 98.6667C53.5672 98.7684 48.7807 98.7684 43.9943 98.8701C38.1895 98.9719 32.2829 98.9719 26.4781 99.0736C21.488 99.1753 16.396 99.1753 11.4059 99.2771C8.96179 99.2771 6.51766 99.2771 4.07353 99.3788H3.97169C2.64778 99.3788 2.64778 101.413 3.97169 101.413Z" fill="#DADCDF"></path><path d="M59.3719 74.2506H26.5798C23.2191 74.2506 20.4695 71.5039 20.4695 68.1467V36.8135H65.4822V68.1467C65.4822 71.5039 62.7326 74.2506 59.3719 74.2506Z" stroke="#5F6368" stroke-width="2" stroke-miterlimit="10"></path><path d="M65.686 37.4243L20.1641 52.684V37.4243H65.686Z" fill="#5F6368"></path><path d="M58.9645 20.6386C58.9645 10.7707 52.1413 2.73389 43.6887 2.73389C35.236 2.73389 28.4128 10.7707 28.4128 20.6386C28.4128 22.775 28.7184 24.7079 29.3294 26.6408H58.0479C58.6589 24.7079 58.9645 22.6732 58.9645 20.6386Z" fill="#CEEAD6" class="VnOHwf-Ysl7Fe"></path><path d="M41.2459 2.85791C39.8834 5.33514 36.5868 11.0328 35.3005 16.6066C34.4087 20.471 34.9289 24.9053 34.9289 27.3825M47.5628 2.85791C48.9253 5.83059 51.0557 8.80327 52.3934 15.4918C53.5082 21.0656 53.1366 24.6576 53.1366 27.3825" stroke="white" stroke-width="2" stroke-linecap="round"></path><path d="M65.4822 37.1189H20.4695V33.3549C20.4695 29.9977 23.2191 27.251 26.5798 27.251H59.3719C62.7326 27.251 65.4822 29.9977 65.4822 33.3549V37.1189V37.1189Z" stroke="#5F6368" stroke-width="2" stroke-miterlimit="10"></path><path d="M43.8471 1V4.34427M56.1094 6.20219L54.623 8.4317M59.0821 11.776L56.8526 14.0055M59.8252 17.3497L56.8526 19.9508M49.4209 16.6066L46.8198 18.8361M43.8471 13.2623L41.6176 11.0328M40.8744 19.9508L38.2733 18.8361M36.0438 6.20219L34.929 4.34427M32.3279 9.54646L30.0984 8.4317M30.0984 15.4918L26.011 14.0055M29.7268 21.0656H26.7542" stroke="#5F6368" stroke-width="2" stroke-linecap="round"></path></svg>