<svg viewBox="0 0 182 153" fill="none" xmlns="http://www.w3.org/2000/svg" class="FEIuWc" aria-hidden="true"><g clip-path="url(#clip0)"><path d="M29.7693 101.641L47.1347 95.8271L29.7693 85.7061L20.9248 93.3507L29.6614 102.072L29.7693 101.641Z" fill="#5F6368"></path><path d="M20.9251 93.3506L19.1993 94.858C18.0128 95.9347 17.3657 97.3344 17.4736 98.8418L18.5521 115.423H18.66C19.0914 116.93 20.3858 118.115 22.1115 118.115H31.0639C32.3582 118.115 33.3289 117.146 33.3289 115.854V111.655H29.446L29.6617 102.072L20.9251 93.3506Z" fill="#DADCE0"></path><path d="M58.6755 93.2432L41.418 93.3508L41.5258 101.641L55.8711 106.594L58.6755 93.2432Z" fill="#DADCE0"></path><path d="M41.5254 101.642L41.7411 128.667H51.2327L55.8707 106.594L41.5254 101.642Z" fill="#DADCE0"></path><path d="M118.753 105.948L115.841 94.6428L94.5928 94.5352L98.6914 100.349L118.969 107.24C118.969 106.702 118.861 106.271 118.753 105.948Z" fill="#5F6368"></path><path d="M98.6914 100.241L106.134 110.685L102.035 128.343L110.664 128.666L118.106 112.408C118.861 110.685 119.185 108.855 118.969 107.024L98.6914 100.241Z" fill="#DADCE0"></path><path d="M35.5936 152C40.3591 152 44.2224 148.143 44.2224 143.386C44.2224 138.629 40.3591 134.772 35.5936 134.772C30.8281 134.772 26.9648 138.629 26.9648 143.386C26.9648 148.143 30.8281 152 35.5936 152Z" fill="#DADCE0"></path><path d="M35.594 147.047C37.6193 147.047 39.2612 145.408 39.2612 143.386C39.2612 141.365 37.6193 139.726 35.594 139.726C33.5686 139.726 31.9268 141.365 31.9268 143.386C31.9268 145.408 33.5686 147.047 35.594 147.047Z" fill="#5F6368"></path><path d="M125.98 152C130.746 152 134.609 148.143 134.609 143.386C134.609 138.629 130.746 134.772 125.98 134.772C121.215 134.772 117.352 138.629 117.352 143.386C117.352 148.143 121.215 152 125.98 152Z" fill="#DADCE0"></path><path d="M125.981 147.047C128.006 147.047 129.648 145.408 129.648 143.386C129.648 141.365 128.006 139.726 125.981 139.726C123.955 139.726 122.313 141.365 122.313 143.386C122.313 145.408 123.955 147.047 125.981 147.047Z" fill="#5F6368"></path><path d="M64.2839 20.3501C59.8617 12.2748 50.6936 8.0756 41.8492 10.3367C32.789 12.5978 24.9152 18.089 24.9152 18.089C19.9537 26.5949 18.3358 39.5154 19.9537 49.2058L21.1401 56.4197L59.9696 55.7737L56.5181 45.6527C56.5181 45.6527 76.6878 41.5612 74.4227 25.1952L73.2363 17.8736L64.2839 20.3501Z" fill="#DADCE0"></path><path d="M58.5681 102.395H51.4493C33.7604 102.395 19.415 87.6437 19.415 69.3397V45.4368L56.0873 44.8984L58.5681 102.395Z" fill="#DADCE0"></path><path d="M140.433 99.0575L56.5183 102.395L55.8711 51.79L119.077 52.9744C131.049 53.1898 140.757 63.3108 140.649 75.8006L140.433 99.0575Z" fill="#DADCE0"></path><path d="M140.649 102.503H124.254C112.174 102.503 102.358 92.7046 102.358 80.6455H140.649V102.503Z" fill="#DADCE0"></path><path d="M134.501 128.774L125.009 128.451L129.431 110.793L123.499 102.287L140.325 98.8418L143.129 106.594C143.777 108.424 143.669 110.363 142.806 112.085L134.501 128.774Z" fill="#DADCE0"></path><path d="M132.883 128.774H118.106V125.867C118.106 123.929 119.616 122.422 121.558 122.422H132.883V128.774Z" fill="#DADCE0"></path><path d="M109.693 128.774H94.916V125.867C94.916 123.929 96.426 122.422 98.3675 122.422H109.693V128.774Z" fill="#DADCE0"></path><path d="M48.6449 128.774H33.8682V125.867C33.8682 123.929 35.3782 122.422 37.3197 122.422H48.6449V128.774Z" fill="#DADCE0"></path><path d="M74.2078 23.5796L70.0013 24.8716C68.1677 25.41 67.3048 23.6873 67.0891 22.3952L66.5498 19.7034L73.2371 17.873L74.2078 23.5796Z" fill="#5F6368"></path><path d="M47.6743 24.8722C48.27 24.8722 48.7529 24.3901 48.7529 23.7955C48.7529 23.2008 48.27 22.7188 47.6743 22.7188C47.0786 22.7188 46.5957 23.2008 46.5957 23.7955C46.5957 24.3901 47.0786 24.8722 47.6743 24.8722Z" fill="#5F6368"></path><path d="M58.352 21.5343C58.9477 21.5343 59.4306 21.0522 59.4306 20.4576C59.4306 19.8629 58.9477 19.3809 58.352 19.3809C57.7563 19.3809 57.2734 19.8629 57.2734 20.4576C57.2734 21.0522 57.7563 21.5343 58.352 21.5343Z" fill="#5F6368"></path><path d="M38.8294 6.4607C39.2608 6.03001 41.0945 4.63029 42.173 2.47688C43.4674 0.215798 41.6338 -0.860908 33.6521 0.754151C31.2792 1.18483 29.5535 1.93853 28.4749 3.8766C25.2391 9.79849 20.6011 29.0715 20.4933 29.3945C20.0618 31.4403 26.2098 17.8738 28.5827 17.5508C29.0142 17.4431 29.4456 17.4431 29.8771 17.3354C32.25 17.4431 34.6229 17.4431 36.9958 17.2278C39.3687 17.0124 41.0945 15.7204 40.663 13.7823C40.5552 12.0596 39.4766 8.2911 38.8294 6.4607Z" fill="#DADCE0"></path><path d="M54.9008 6.99829C55.4401 6.56761 57.2737 5.4909 58.568 3.76817C60.0781 1.8301 58.4602 0.538049 50.8021 0.968732C48.5371 1.0764 46.8113 1.50709 45.517 3.12214C41.6341 8.18266 34.6232 25.733 34.5153 26.056C33.7603 27.8864 41.5262 16.0426 43.6834 16.0426C44.1148 16.0426 44.5463 16.0426 44.9777 16.0426C47.2428 16.4733 49.5078 16.7963 51.665 17.0117C53.9301 17.1193 55.7637 16.1503 55.6558 14.3199C55.7637 12.4895 55.2244 8.72102 54.9008 6.99829Z" fill="#DADCE0"></path><path d="M59.7538 46.7295H17.9043V52.0053H59.7538V46.7295Z" fill="#1E8E3E" class="VnOHwf-Wvd9Cc"></path><path d="M37.0332 58.5953C37.0332 60.4388 35.5362 61.9357 33.6865 61.9357C31.8368 61.9357 30.3398 60.4388 30.3398 58.5953C30.3398 56.7518 31.8368 55.2549 33.6865 55.2549C35.5362 55.2549 37.0332 56.7518 37.0332 58.5953Z" fill="#DADCE0" stroke="#5F6368" stroke-width="2"></path><path d="M176.885 23.8156C172.897 16.1592 164.59 13.4525 167.313 21.7073C171.108 32.9595 170.634 45.7256 161.837 54.031C153.409 62.0887 139.029 61.4451 128.159 57.8767C119.932 55.2423 116.646 72.5765 125.185 73.8979C180.058 82.7866 185.126 39.8017 176.885 23.8156Z" fill="#DADCE0"></path><path d="M33.6726 6.87906C34.3835 7.30365 36.4787 7.9247 39.1732 7.01215" stroke="#5F6368" stroke-width="2" stroke-linecap="round" stroke-linejoin="round"></path><path d="M51.0732 7.5957C52.1599 8.13826 53.7899 8.13826 55.4199 7.5957" stroke="#5F6368" stroke-width="2" stroke-linecap="round" stroke-linejoin="round"></path><g clip-path="url(#clip1)"><path d="M158.67 123.158C159.439 122.403 159 121.108 157.901 121.108L153.616 121C152.077 121 150.649 121.54 149.44 122.511L142.078 128.338H16.7019L9.44967 122.511C8.24096 121.54 6.81248 121 5.27413 121L1.31836 121.108C0.109651 121.108 -0.439762 122.511 0.439299 123.374L12.4165 134.489C13.5153 135.46 14.9438 136 16.3723 136H142.408C143.836 136 145.264 135.46 146.363 134.489L158.67 123.158Z" fill="#1E8E3E" class="VnOHwf-Wvd9Cc"></path></g></g><defs><clipPath id="clip0"><rect width="182" height="153" fill="white"></rect></clipPath><clipPath id="clip1"><rect width="159" height="15" fill="white" transform="translate(0 121)"></rect></clipPath></defs></svg>