<svg width="276" height="82" fill="none" xmlns="http://www.w3.org/2000/svg"><g clip-path="url(#clip0)"><path d="M166 2h16v79h-16V2z" fill="#EA4335"/><path d="M121 0h19v81h-19V0z" fill="#4285F4"/><path d="M125.5 4.5h10v72h-10v-72z" stroke="#5F6368"/><path fill="#FBBC04" d="M140 5h26v76h-26z"/><path d="M161.5 43c0 8.804-1.004 16.757-2.617 22.492-.808 2.871-1.76 5.158-2.796 6.716-1.049 1.577-2.102 2.292-3.087 2.292-.985 0-2.038-.715-3.087-2.292-1.036-1.558-1.988-3.845-2.796-6.716C145.504 59.756 144.5 51.804 144.5 43s1.004-16.756 2.617-22.492c.808-2.871 1.76-5.158 2.796-6.716 1.049-1.577 2.102-2.292 3.087-2.292.985 0 2.038.715 3.087 2.292 1.036 1.558 1.988 3.845 2.796 6.716C160.496 26.244 161.5 34.196 161.5 43z" stroke="#5F6368"/><path fill="#34A853" d="M181.912 19.98l14.672-3.119 12.995 61.136-14.672 3.118z"/><path d="M181.912 19.98a7.5 7.5 0 0014.673-3.118l-7.337 1.56-7.336 1.559z" fill="#DADCE0"/><path stroke="#5F6368" d="M186.071 39.544l14.672-3.119M191.892 66.932l14.673-3.119"/><path d="M86.904 26.702s-15.95 18.923-7.512 40.21" stroke="#5F6368" stroke-miterlimit="10" stroke-linejoin="bevel"/><path d="M79.675 26.522l1.427-.337-1.444-.38c-1.695-.432-2.582-2.288-1.887-3.896.695-1.608 2.635-2.187 4.13-1.295l1.267.793-.733-1.27c-.869-1.522-.225-3.452 1.42-4.104 1.612-.639 3.436.313 3.844 2.017l.338 1.427.379-1.445c.432-1.694 2.288-2.582 3.896-1.887 1.608.695 2.187 2.636 1.295 4.131l-.792 1.266 1.27-.732c1.521-.87 3.451-.226 4.103 1.42.64 1.611-.313 3.435-2.016 3.844l-1.427.337 1.444.38c1.695.432 2.583 2.288 1.888 3.896-.696 1.608-2.636 2.186-4.132 1.295l-1.266-.793.733 1.27c.869 1.521.225 3.452-1.42 4.104-1.612.639-3.436-.313-3.844-2.017l-.338-1.427-.379 1.445c-.432 1.694-2.288 2.582-3.896 1.887-1.608-.695-2.187-2.636-1.295-4.131l.792-1.266-1.27.732c-1.521.87-3.451.226-4.103-1.42-.64-1.611.313-3.435 2.016-3.844z" fill="#EA4335"/><path d="M87.992 29.735c.234.592.923.89 1.516.655.592-.234.89-.923.655-1.516a1.178 1.178 0 00-1.516-.655c-.625.248-.903.891-.655 1.516zM85.618 23.747c.235.593.924.89 1.516.656.592-.235.89-.924.656-1.516a1.178 1.178 0 00-1.517-.656c-.625.248-.89.924-.655 1.516zM91.282 26.223c.592-.235.89-.924.655-1.516a1.178 1.178 0 00-1.516-.655c-.592.234-.89.923-.655 1.516.235.592.924.89 1.516.655zM85.327 28.583c.592-.234.89-.923.655-1.516a1.178 1.178 0 00-1.516-.655c-.592.235-.89.924-.655 1.516s.924.89 1.516.655z" fill="#C5221F"/><path d="M88.442 60.18a13.23 13.23 0 00-.864-1.094l-2.835-3.637c-1.66-2.118-1.901-5.048-.622-7.45H70.845c1.28 2.402 1.037 5.332-.622 7.45l-2.835 3.637c-.31.353-.588.706-.864 1.094A13.85 13.85 0 0064 68.194c0 7.52 5.947 13.699 13.31 13.805C84.847 82.105 91 75.89 91 68.229c-.034-3-.968-5.79-2.558-8.049z" fill="#FAD2CF"/><path stroke="#5F6368" d="M28 81.5h220"/></g><defs><clipPath id="clip0"><path fill="#fff" d="M0 0h276v82H0z"/></clipPath></defs></svg>