<svg width="172" height="150" fill="none" xmlns="http://www.w3.org/2000/svg"><path d="M1 5a4 4 0 0 1 4-4h162a4 4 0 0 1 4 4v140a4 4 0 0 1-4 4H5a4 4 0 0 1-4-4V5Z" fill="#fff" stroke="#5F6368" stroke-width="2"/><path d="M17 57a4 4 0 0 1 4-4h130a4 4 0 0 1 4 4v72a4 4 0 0 1-4 4H21a4 4 0 0 1-4-4V57Z" fill="#E6F4EA"/><path d="M105.747 101.207c18.932-13.662 39.995-15.71 49.119-13.839V129a4 4 0 0 1-4 4H84c0-4.115 4.124-19.076 21.747-31.793Z" fill="#A8DAB5"/><circle cx="105" cy="74" r="7" fill="#5BB974"/><path d="M79.217 91.425C55.237 73.56 28.557 70.882 17 73.328V129a4 4 0 0 0 4 4h85.764c0-5.38-5.225-24.945-27.547-41.575Z" fill="#81C995"/><rect x="49" y="20" width="56" height="6" rx="1" fill="#8AB4F8"/><rect x="49" y="32" width="32" height="6" rx="1" fill="#BDC1C6"/><path d="M38.896 36.757c-3.145 4.01-11.442 5.549-16.078 2.99-10.16-5.61-6.34-23.13 6.242-22.74 9.345.288 15.338 12.734 9.836 19.75Z" fill="#FBBC04"/></svg>