<svg width="224" height="224" fill="none" xmlns="http://www.w3.org/2000/svg"><path fill="#fff" d="M0 0h224v224H0z"/><path d="M108 28H28v80h80V28z" fill="#3C4043"/><path d="M93.93 76.74c0-.96-.23-2.15-2.15-5.11a6.1 6.1 0 010-6.52c1.92-2.96 2.15-4.15 2.15-5.11s-.23-2.15-2.15-5.11l-7.85-11.26A19.37 19.37 0 0068 35.26c-6.6 0-12.44 3.33-15.93 8.37l-7.85 11.26c-1.92 2.96-2.15 4.15-2.15 5.11s.23 2.15 2.15 5.11a6.1 6.1 0 010 6.52c-1.92 2.96-2.15 4.15-2.15 5.11s.23 2.15 2.15 5.11a6.1 6.1 0 010 6.52c-1.92 2.96-2.15 4.15-2.15 5.11s.23 2.15 2.15 5.11a6.1 6.1 0 010 6.52h47.56a6.1 6.1 0 010-6.52c1.92-2.96 2.15-4.15 2.15-5.1 0-.97-.23-2.16-2.15-5.12a6.1 6.1 0 010-6.52c1.92-2.96 2.15-4.07 2.15-5.1z" fill="#FBBC04"/><path d="M53.93 53.85a14.07 14.07 0 1028.14 0H53.93z" fill="#E8EAED"/><path d="M97.63 108v-3.63c0-9.63-4.6-18.67-12.44-24.15L68 68 50.8 80.22a29.72 29.72 0 00-12.43 24.15V108" fill="#4285F4"/><mask id="a" mask-type="alpha" maskUnits="userSpaceOnUse" x="38" y="68" width="60" height="40"><path d="M97.63 108v-3.63c0-9.63-4.6-18.67-12.44-24.15L68 68 50.8 80.22a29.72 29.72 0 00-12.43 24.15V108" fill="#4285F4"/></mask><g mask="url(#a)"><path d="M56.15 76v8.6a11.84 11.84 0 1023.7 0V76" stroke="#5F6368" stroke-miterlimit="10"/></g><path d="M196 28h-80v80h80V28z" fill="#D2E3FC"/><mask id="b" mask-type="alpha" maskUnits="userSpaceOnUse" x="116" y="28" width="80" height="80"><path d="M196 28h-80v80h80V28z" fill="#DADCE0"/></mask><g mask="url(#b)"><path d="M150.82 113.68a22.81 22.81 0 00-1.84-18.88 8.77 8.77 0 011.93-11.24 15.67 15.67 0 005.07-8.3c1.66-7-1.84-14.27-8.38-17.3a15.33 15.33 0 00-21.56 17.22 8.68 8.68 0 01-5.43 9.85 23.2 23.2 0 00-13.08 13.73 22.81 22.81 0 001.84 18.88 8.9 8.9 0 01-1.94 11.24 15.68 15.68 0 00-5.06 8.29 15.42 15.42 0 008.38 17.22 15.33 15.33 0 0021.55-17.22c-.92-4.15 1.48-8.2 5.44-9.86a22.3 22.3 0 0013.08-13.63z" fill="#4285F4"/><path d="M166.66 79.78h-17.4a20.26 20.26 0 00-20.27 20.27v40.8h57.94v-40.8a20.2 20.2 0 00-20.27-20.27z" fill="#34A853"/><path d="M150.53 79.97l8.31 13.3 8.31-13.3" stroke="#5F6368"/><path d="M159.38 73.8a17.46 17.46 0 01-17.77-17.32l35.1-.56a17.65 17.65 0 01-17.33 17.87z" fill="#9AA0A6"/><path d="M158.83 38.7a17.46 17.46 0 0117.78 17.32l-35.1.55a17.6 17.6 0 0117.32-17.87z" fill="#4285F4"/></g><path d="M196 116h-80v80h80v-80z" fill="#34A853"/><mask id="c" mask-type="alpha" maskUnits="userSpaceOnUse" x="116" y="116" width="80" height="80"><path d="M196 116h-80v80h80v-80z" fill="#DADCE0"/></mask><g mask="url(#c)"><path d="M166.1 167.85h-25.17a16.1 16.1 0 00-16.13 16.13v47.86h57.34v-47.86c.09-8.93-7.2-16.13-16.05-16.13z" fill="#FBBC04"/><path d="M154.88 161.92a17.33 17.33 0 01-17.6-17.14l34.74-.54c.09 9.57-7.57 17.5-17.14 17.68z" fill="#E8EAED"/><path d="M154.33 127.1a17.27 17.27 0 0117.6 17.14l-34.73.54a17.53 17.53 0 0117.13-17.68z" fill="#EA4335"/><path d="M182.23 231.84h18.69l-19.88-53.97-10.39 3.01 11.58 50.96z" fill="#FBBC04"/><path stroke="#5F6368" d="M172.09 185.89l4.19 11.09"/><path d="M164.16 175.27a3.74 3.74 0 015.13 1.3l1.06 1.8 1.3-5.07a7.2 7.2 0 013.3-4.44l5.49-3.25 3.25 5.48a7.2 7.2 0 01.78 5.48l-1.93 7.56a6.63 6.63 0 01-12.1 1.72l-6.28-10.58z" fill="#E8EAED"/></g><path d="M108 116H28v80h80v-80z" fill="#FAD2CF"/><mask id="d" mask-type="alpha" maskUnits="userSpaceOnUse" x="28" y="116" width="80" height="80"><path d="M108 116H28v80h80v-80z" fill="#DADCE0"/></mask><g mask="url(#d)"><path d="M90.72 141.69l-3.74.53 3.06-2.21a7.3 7.3 0 00.84-11.02 7.29 7.29 0 00-11.02.84l-2.22 3.06.54-3.74a7.3 7.3 0 00-7.19-8.42 7.3 7.3 0 00-7.19 8.42l.54 3.74-2.22-3.05a7.3 7.3 0 00-11.02-.85 7.29 7.29 0 00.85 11.02l3.05 2.22-3.74-.54a7.3 7.3 0 00-8.42 7.19 7.3 7.3 0 008.42 7.19l3.75-.54-3.06 2.22a7.3 7.3 0 00-.85 11.02 7.29 7.29 0 0011.02-.84l7.8-10.25 6.04-4.67 14.92 2.98a7.3 7.3 0 008.41-7.19 7.53 7.53 0 00-8.57-7.11z" fill="#3C4043"/><path d="M77.26 162.11a14.61 14.61 0 01-19.12-7.65L85 143a14.58 14.58 0 01-7.73 19.12z" fill="#5F6368"/><path d="M65.79 135.34c7.42-3.13 15.98.3 19.12 7.65l-26.85 11.47a14.71 14.71 0 017.73-19.12z" fill="#3C4043"/><path d="M48.27 176.72a13.54 13.54 0 0112.55-8.49h21.1c7.5 0 13.55 6.04 13.55 13.54V222H31.6l16.67-45.28z" fill="#EA4335"/><path stroke="#5F6368" d="M52.53 196.83l6-17"/></g></svg>
