<svg width="344" height="240" fill="none" xmlns="http://www.w3.org/2000/svg"><mask id="a" maskUnits="userSpaceOnUse" x="62" y="10" width="220" height="221"><circle cx="172" cy="120" r="110" fill="#DADCE0"/></mask><g mask="url(#a)"><circle cx="172" cy="120" r="110" fill="#D2E3FC"/><path d="M59.02 159.547a22.565 22.565 0 019.982-7.053 12.828 12.828 0 006.743-5.689 12.594 12.594 0 001.42-8.651 33.126 33.126 0 01.518-14.421 33.36 33.36 0 016.607-12.868 33.83 33.83 0 0111.469-8.925 34.198 34.198 0 0114.202-3.328h61.83v51.009h-32.413a34.274 34.274 0 01-2.448 3.47 33.766 33.766 0 01-11.159 8.932 34.128 34.128 0 01-13.9 3.552 13.302 13.302 0 00-8.346 3.367 13.026 13.026 0 00-4.224 7.874 22.36 22.36 0 01-3.761 9.557 22.678 22.678 0 01-7.66 6.915 22.994 22.994 0 01-20.174 1.008 22.746 22.746 0 01-8.326-6.116 22.413 22.413 0 01-4.717-9.133 22.258 22.258 0 01-.13-10.254 22.395 22.395 0 014.487-9.246z" fill="#3C4043"/><path d="M257.023 170.25V232h-85.705V130.579h62.695c23.01 0 23.01 39.671 23.01 39.671z" fill="#FBBC04"/><path d="M171.535 128.931c-9.907-28.943.48-49.839 19.855-56.471 19.376-6.632 40.389 3.516 50.296 32.46l-70.151 24.011z" fill="#80868B"/><path d="M207.632 125.404c-7.1 2.039-14.706 1.207-21.146-2.315a27.353 27.353 0 01-13.2-16.464l53.505-15.38c2.006 7.016 1.115 14.554-2.477 20.958-3.592 6.404-9.592 11.152-16.682 13.201z" fill="#BDC1C6"/><path d="M191.719 73.371c7.022-2.278 14.649-1.706 21.207 1.59 6.557 3.296 11.507 9.046 13.763 15.986l-52.96 17.275a27.26 27.26 0 01-1.255-10.693 27.515 27.515 0 012.98-10.381 27.885 27.885 0 016.759-8.485 28.137 28.137 0 019.506-5.292z" fill="#80868B"/><path d="M152.895 72.571a27.932 27.932 0 019.414 5.368c2.751 2.383 5 5.278 6.619 8.52a27.245 27.245 0 011.402 21.03l-52.753-17.681a27.464 27.464 0 015.429-9.307 27.82 27.82 0 018.619-6.544 28.146 28.146 0 0121.27-1.386z" fill="#3C4043"/><path d="M171.799 232H86.094v-77.332a23.95 23.95 0 017.137-17.033 24.505 24.505 0 0117.228-7.056h61.34V232z" fill="#4285F4"/><path stroke="#5F6368" d="M106.5 170v40M234.5 174v43"/><path d="M135.011 124.726a27.931 27.931 0 01-9.413-5.368 27.577 27.577 0 01-6.619-8.521 27.244 27.244 0 01-1.402-21.03l52.753 17.682c-2.373 6.915-7.427 12.615-14.05 15.847a28.155 28.155 0 01-21.269 1.39zM202.204 143.096a8.099 8.099 0 005.685 2.324 8.097 8.097 0 005.685-2.324l3.126-3.091v11.072a15.249 15.249 0 004.547 10.837l9.648 9.547 9.656-9.547a15.243 15.243 0 004.538-10.837v-16.503c0-3.722-1.495-7.291-4.157-9.923a14.277 14.277 0 00-10.037-4.11 14.308 14.308 0 00-5.467 1.081 14.184 14.184 0 00-4.622 3.083l-18.602 18.391z" fill="#5F6368"/><path d="M120.662 130.579c0 2.109-.847 4.13-2.355 5.621a8.086 8.086 0 01-5.685 2.328h-4.416l7.918 7.828a15.243 15.243 0 014.538 10.837v13.501h-13.607c-2.045 0-4.07-.4-5.959-1.177a15.518 15.518 0 01-5.044-3.35L84.25 154.53a13.95 13.95 0 01-4.156-9.921c0-3.722 1.495-7.29 4.156-9.922a14.191 14.191 0 014.64-3.058 14.308 14.308 0 015.473-1.05h26.299z" fill="#BDC1C6"/></g></svg>