<svg viewBox="0 0 210 174" fill="none" xmlns="http://www.w3.org/2000/svg" aria-hidden="true" class="BgnnGb"><path d="M80.7852 170.407L132.959 46.7041M108.555 170.407L131.276 47.5456" stroke="#5F6368" stroke-width="2" stroke-linecap="round" stroke-linejoin="round"></path><path d="M129.593 169.986L131.219 49.2291M131.276 45.0215L131.219 49.2291M155.259 170.828L131.219 49.2291" stroke="#5F6368" stroke-width="2" stroke-linecap="round" stroke-linejoin="round"></path><path d="M180.084 172.09L132.538 50.9121" stroke="#5F6368" stroke-width="2" stroke-linecap="round" stroke-linejoin="round"></path><path d="M67.9948 155.932H6.31178C3.53478 155.932 1.2627 153.66 1.2627 150.883V94.2493C1.2627 91.4723 3.53478 89.2002 6.31178 89.2002H62.9457C65.7227 89.2002 67.9948 91.4723 67.9948 94.2493V155.932Z" stroke="#5F6368" stroke-width="2" stroke-miterlimit="10"></path><path d="M4.88078 154.671C2.18794 154.671 0 152.483 0 149.79V92.8193C0 90.1264 2.18794 87.9385 4.88078 87.9385H61.8513C64.5442 87.9385 66.7321 90.1264 66.7321 92.8193L4.88078 154.671Z" fill="#5F6368"></path><path d="M208.864 164.6L136.746 39.8031V37.4469C136.746 34.3333 134.222 31.7246 131.024 31.7246C127.91 31.7246 125.302 34.2492 125.302 37.4469V39.8031L53.268 164.6C52.3423 166.199 52.9314 168.134 54.4461 169.06L58.6537 171.5C60.2525 172.426 62.188 171.837 63.1137 170.322L131.024 52.6783L198.934 170.322C199.86 171.921 201.795 172.426 203.394 171.5L207.602 169.06C209.201 168.218 209.79 166.199 208.864 164.6Z" fill="#1E8E3E" class="VnOHwf-Wvd9Cc"></path><path d="M109.396 6.73214L117.391 5.89062M130.855 26.087C130.855 26.4236 131.136 31.8373 131.276 34.5021" stroke="#5F6368" stroke-width="2" stroke-linecap="round" stroke-linejoin="round"></path><path d="M147.181 11.2764C147.181 20.1964 139.944 27.4334 131.024 27.4334C122.104 27.4334 114.867 20.1964 114.867 11.2764H147.181Z" fill="#CEEAD6" class="VnOHwf-Ysl7Fe"></path><path d="M120.505 0C117.392 0 114.867 2.52454 114.867 5.63815V11.2763H126.143V5.63815C126.059 2.52454 123.619 0 120.505 0Z" fill="#CEEAD6" class="VnOHwf-Ysl7Fe"></path><path d="M128.331 17.251C129.173 18.0925 131.445 19.5231 133.801 18.5132" stroke="#5F6368" stroke-width="2" stroke-linecap="round" stroke-linejoin="round"></path><path d="M43.7933 59.3332L43.0635 41.584" stroke="#5F6368" stroke-width="2" stroke-linecap="round"></path><path d="M43.2595 49.3815C43.7726 48.0742 44.4317 47.1489 45.6543 46.1489C48.0996 44.1487 50.9918 45.8757 50.769 47.5929C50.6228 48.7195 49.1637 50.7819 47.3131 50.9723C45.1536 51.1946 43.8828 50.8101 43.3699 50.6088" stroke="#5F6368" stroke-width="2" stroke-linecap="round"></path><path d="M43.1922 49.7431C42.7694 48.4039 42.1749 47.4358 41.0233 46.3547C38.72 44.1926 35.7169 45.7184 35.8221 47.4469C35.8911 48.5808 36.4669 50.0443 39.0397 51.0539C41.0605 51.847 42.473 51.1258 42.9985 50.96" stroke="#5F6368" stroke-width="2" stroke-linecap="round"></path><path d="M38.0703 86.6842C46.1057 89.8377 55.1745 85.8841 58.326 77.8537C61.4775 69.8232 57.5183 60.7569 49.483 57.6034C41.4476 54.4499 32.3788 58.4035 29.2273 66.434C26.0757 74.4644 30.0349 83.5308 38.0703 86.6842Z" fill="#DADCE0"></path><path d="M34.4039 78.6508C35.6111 79.1245 36.3586 77.2197 35.1515 76.7459C33.9443 76.2722 33.1968 78.177 34.4039 78.6508Z" fill="#5F6368"></path><path d="M38.941 74.9359C40.1482 75.4097 40.8957 73.5048 39.6886 73.0311C38.4814 72.5573 37.7339 74.4622 38.941 74.9359Z" fill="#5F6368"></path><path d="M42.2525 81.0717C43.4597 81.5454 44.2072 79.6406 43.0001 79.1668C41.7929 78.6931 41.0454 80.598 42.2525 81.0717Z" fill="#5F6368"></path><path d="M37.5484 82.5961C38.7556 83.0698 39.5031 81.165 38.296 80.6912C37.0888 80.2175 36.3413 82.1224 37.5484 82.5961Z" fill="#5F6368"></path><path d="M44.1148 56.5226C35.4827 56.2857 28.3179 63.1461 28.0846 71.7742C27.9998 74.2323 28.5478 76.5723 29.5381 78.7195L53.7583 60.1606C51.1074 57.9478 47.8285 56.5878 44.1148 56.5226Z" fill="#5F6368"></path></svg>